PathFileType	4	(X/Y/Z)	30_1_11_p1_0-333.trc
DataRate	CameraRate	NumFrames	NumMarkers	Units	OrigDataRate	OrigDataStartFrame	OrigNumFrames
59.0	59.0	7	27	m	59.0	292	334
Frame#	Time	RHip			RKnee			RAnkle			RBigToe			RSmallToe			RHeel			LHip			LKnee			LAnkle			LBigToe			LSmallToe			LHeel			Neck			Head			Nose			RShoulder			RElbow			RWrist			RThumb			RIndex			RPinky			LShoulder			LElbow			LWrist			LThumb			LIndex			LPinky			
		X1	Y1	Z1	X2	Y2	Z2	X3	Y3	Z3	X4	Y4	Z4	X5	Y5	Z5	X6	Y6	Z6	X7	Y7	Z7	X8	Y8	Z8	X9	Y9	Z9	X10	Y10	Z10	X11	Y11	Z11	X12	Y12	Z12	X13	Y13	Z13	X14	Y14	Z14	X15	Y15	Z15	X16	Y16	Z16	X17	Y17	Z17	X18	Y18	Z18	X19	Y19	Z19	X20	Y20	Z20	X21	Y21	Z21	X22	Y22	Z22	X23	Y23	Z23	X24	Y24	Z24	X25	Y25	Z25	X26	Y26	Z26	X27	Y27	Z27	
292	4.9491525423728815	0.23295172580701257	0.47985942758272015	0.8620085841623055	0.24685353800916293	0.49420226143008594	1.3324278734455839	0.25075195095049513	0.5733132310992078	1.826689921627022	0.25921350599553605	0.3568289679663386	1.8153105320358147	0.31633242911522064	0.3877238681370467	1.8077461295027615	0.2376433678558485	0.604650595105256	1.8679995887838823	0.01442890017288079	0.46451070500025915	0.8674822733303235	0.04971292806429283	0.5071018178408129	1.3533030532087844	0.03560432960726998	0.528953347809437	1.8125221684898192	0.10518680837120713	0.3248271902181642	1.7975634360678916	0.04432226518588242	0.3619436983439651	1.8101742033033539	0.026917440049632136	0.606723011823799	1.8993715978271841	0.11500170886383933	0.4969044928876117	0.22899789966450954	0.11232933276214606	0.43028894132975926	-0.012226200459028638	0.11202186004976505	0.3771441794395093	0.11184666415588976	0.2972190675957024	0.4847395640553856	0.3497576629584884	0.3601583038585628	0.5265039571254425	0.6392864296657622	0.3824000697948777	0.40817129837771077	0.8876288103063905	0.347167540566438	0.3397531853589113	0.982649703096097	0.36868809601259206	0.3355658616282934	1.0150792370749675	0.3644199603277012	0.40339260000400357	1.0375852462932134	-0.06759092539803462	0.5117659080510372	0.3529513892240667	-0.07590691360932586	0.5290361648652687	0.632329572064573	-0.08416084633936885	0.43596796554998174	0.8838982229993411	-0.02443439595839937	0.40237081838230737	1.0018737291483268	-0.05163459008653837	0.3511121310490737	1.0004644134420493	-0.09834572533673923	0.40984237288113484	1.0163566250281606
293	4.966101694915254	0.23725801671179667	0.48190847913677126	0.8624946306794212	0.24679019159049692	0.49384755491034316	1.3324682855823977	0.2512324048909313	0.5715289901613674	1.8308322896063731	0.25494234264258764	0.34476992993467603	1.8076368707741457	0.3196049576193284	0.37249952144619203	1.7975950592268108	0.24064340193206796	0.6151278606822106	1.8804319117627075	0.01449018543185781	0.46435517473182314	0.8676295958608863	0.04974607292427635	0.5070589889485413	1.3534335500438694	0.03560479193392986	0.5288766804990163	1.812523496525838	0.10518628266465233	0.32470527409760425	1.7975251593148214	0.044333376046351666	0.3619020616026779	1.8102537658782067	0.028030946049458126	0.608319730887944	1.9050224821757658	0.11500737636007449	0.4968580802841536	0.2290597488525586	0.1158928700376573	0.41852320571507035	-0.01248749497264614	0.1119897924256896	0.3771273199619635	0.11188414905596328	0.2972565367501317	0.484812192377809	0.34979237324421697	0.3601753131853949	0.5264398623208045	0.6393821301859645	0.378516516284637	0.3975692640014377	0.884289681670494	0.3427762396719814	0.32929604146470776	0.9788625492548813	0.3686775126550659	0.335568678082659	1.0149519393935913	0.36490664700372716	0.4028184129661765	1.0340707628794752	-0.06758193077721818	0.5117564278600661	0.3529583382370196	-0.07565337428748355	0.5283137496274289	0.6360890617501118	-0.08425753890111287	0.435735950290211	0.8839220251681067	-0.02457356809456551	0.40157338931276193	1.0018678945518877	-0.05166133698541274	0.35091251533735135	1.000507440696696	-0.09839314136437197	0.41002568610342155	1.0166498061230527
294	4.983050847457627	0.23729747877654417	0.481761231878362	0.8631998822720204	0.24679401701428758	0.4940813339744787	1.3325608044410893	0.25124799161124245	0.5714851073199697	1.830916997413302	0.2548321754122551	0.3445095625460806	1.8079498594642502	0.3115588373138645	0.3752160576158926	1.8003114950712185	0.243061779715469	0.6166863253643913	1.8804901180305469	0.02147625908209056	0.47856171924758895	0.8719523731832749	0.04978674294958028	0.5070822478893885	1.3533953818024014	0.036480750160897454	0.5303895279634346	1.818190132165308	0.10087265140071142	0.3385194951621758	1.8072132669274126	0.039409937506175864	0.3759106160327988	1.8199357681542205	0.02420038566836047	0.6031441568306919	1.9067005798054522	0.11838129770262931	0.5080280647834411	0.22992996760550435	0.11228544586915432	0.43019083109314155	-0.012201470708832096	0.11197845674107162	0.37712098540432365	0.11188904313196454	0.29728839786448535	0.48486807467047394	0.3497535369844779	0.35997113326105434	0.5260884591752971	0.6430603438943693	0.3810797144789304	0.38341625860908873	0.8793467385819419	0.339263903364184	0.32733797118796754	0.982088597401837	0.3690317407952699	0.3353697460186441	1.0115766433956475	0.3646887007657414	0.40232081579395707	1.0376371028107647	-0.0677684186389328	0.5122339153076159	0.349337901784756	-0.07568899565545946	0.5283484587194094	0.6362360429341845	-0.08143539899052556	0.4480350792746122	0.8875529532139732	-0.02726593281008204	0.39016524386195595	0.997830774648875	-0.0517311134206901	0.35102919076795375	1.0003060817423404	-0.10209645566067296	0.4085319826603748	1.0160595476760044
295	5.0	0.2333716937245415	0.47034528975834644	0.8598292396949196	0.2468596465840418	0.4939443142970673	1.3326568193338024	0.2512182118567421	0.5713360515696502	1.8310439540406676	0.2592492119805746	0.35660263866822256	1.8157024264808233	0.3161317355593079	0.3876921235157837	1.808061471265958	0.23699980078790775	0.6026898201230707	1.8781155455886804	0.01845124883722593	0.4666638508433169	0.8684613913743418	0.04975543425916239	0.5069250719397344	1.353342956143577	0.03706508608627632	0.5288457076196265	1.8225741287781296	0.10089561290728495	0.33864373710122786	1.8073388679770925	0.039438315508988374	0.3758274161817515	1.8198879138970263	0.024376555680062185	0.6036033368711737	1.907199437557844	0.1183836341953434	0.5080509269889768	0.22997568876317773	0.1122950529217005	0.4302879295335793	-0.012230032959871646	0.11546794474746394	0.37805680718741463	0.11180028497364969	0.29726282017741196	0.4848519379406374	0.34973280751789454	0.36001861311568345	0.5260990359933433	0.6430667277152978	0.38110392262198606	0.3833469058936363	0.8793113936243611	0.3392746417257027	0.32756374871223626	0.9821732101630415	0.3690528701602324	0.3354436831039975	1.0115662682516122	0.36465706190758157	0.40216017674189375	1.0375207832486437	-0.06776132085734195	0.5122315264017667	0.34931681827508776	-0.07567602971495697	0.5282933386351799	0.6363407731893586	-0.08421699763166031	0.43608325693364064	0.883942882827213	-0.030071026355015264	0.37795393438679464	0.9937251833553926	-0.05448277677283473	0.3395847532838971	0.9961523420833484	-0.10223803288232866	0.4083034740192681	1.0159515813122724
296	5.016949152542373	0.23334342269329247	0.470395134356615	0.8600196294535442	0.24683483722262783	0.4938292902173604	1.3326229254583675	0.251230769838192	0.5712936993344013	1.831042093894121	0.2592181886674471	0.35663111264734676	1.815475350744535	0.31612870563667006	0.3874947449302063	1.80791017673649	0.2370663372900885	0.6028564563171255	1.8781255079778347	0.017940040778804872	0.46625981029010327	0.8721997654037638	0.0497546039625855	0.5069813285398483	1.3533796276971621	0.03706960194490749	0.5288227117252976	1.8225645098771068	0.10534583844730705	0.32456240758970234	1.798106714715716	0.04433916907327707	0.3618277062581659	1.8103555882446085	0.02438014605495393	0.603573051908982	1.9071473850322016	0.1183910326211115	0.5079854592307916	0.22994578762744095	0.11233383936883175	0.430249042016914	-0.012237664079085168	0.11544091606552694	0.3780217938028861	0.11173602914731823	0.2972657873639121	0.48488260071329314	0.349764577845888	0.3599823669526483	0.5261136815775982	0.643033668881017	0.381127717070256	0.3831437168332334	0.8792944962254357	0.3430127330086939	0.3135565080401917	0.9764841116062308	0.3717390361621755	0.3226023015446029	1.0101815433965866	0.3674123151923002	0.38870822038662	1.0356447511394187	-0.06775785325161578	0.5122042152712645	0.3492671138840668	-0.07560660389998318	0.5297394468261842	0.636664618823344	-0.08434478767121867	0.435701740588878	0.8839890262452018	-0.030206412654933255	0.37757660148116906	0.9935764832488033	-0.05455504173862423	0.3390523806598421	0.9959154144473237	-0.10163495136732015	0.40914402269353184	1.0205526092641977
297	5.033898305084746	0.23337018259518552	0.47044672072902594	0.8596835286405268	0.24683298674003562	0.49394194484662746	1.3325987354537563	0.2512415384555241	0.5712673478257223	1.831015245996846	0.25919078674647283	0.3566496648792021	1.8152607402272487	0.3119104887087018	0.3757339964834106	1.8003121131491053	0.23707202397876329	0.6028317194827048	1.8781142600140799	0.01795895224412711	0.46611530249054706	0.8720247922434095	0.04971528633943089	0.5068779140444273	1.3533748001284207	0.03613276209135653	0.5272451073621424	1.8168038558357342	0.09974848310096245	0.3371166406408045	1.801685276462149	0.03939571922969322	0.3756049827793393	1.819480504432924	0.024370118813671265	0.603555222061156	1.907091298051998	0.11501150636363716	0.49695023538358996	0.2290651857227667	0.11585971628046328	0.4186573682642808	-0.012449400593873006	0.11547949813512098	0.3779964242945105	0.11174120195291108	0.2972814941310287	0.48491083323335454	0.3497852052244007	0.360175799482515	0.5264959034849086	0.6392912407623095	0.3811549126959072	0.3830296047799258	0.8791565203853446	0.34327510790661303	0.31268828797048887	0.9760891764985076	0.37185220219244175	0.32205055051612186	1.010009533319473	0.36795191593057386	0.3882639738406552	1.0320899483705448	-0.06776350200129297	0.512172103559274	0.3492477017689612	-0.07826487337826697	0.5176168931400539	0.6341157538291912	-0.08449156073746138	0.4353053622613271	0.8841090451636681	-0.030208171463128427	0.37741713054239784	0.9936467228213167	-0.054525771439642545	0.3390623798412661	0.9960862653021326	-0.10172485072721688	0.40906779702407436	1.0205909458611686
298	5.0508474576271185	0.23742362789455038	0.4819359547100001	0.8630162726551726	0.24675714786649494	0.4939045326120752	1.3325879251465258	0.2512826795397216	0.5714399199498381	1.8311296749720316	0.2592065936001856	0.35655558863991604	1.815363603228723	0.31539249326567864	0.3608701974993366	1.790297725083188	0.2419303091758685	0.6162789176975844	1.8865070559555577	0.018120011580028055	0.46653601963844876	0.8718777755420662	0.04968927272793027	0.5069815566529479	1.3534302914519114	0.03563647242758483	0.5289342919925997	1.812663398451423	0.10413051347286642	0.32347542062444373	1.7924156647228524	0.04430132641460252	0.36176889999609796	1.8100226175087302	0.02440544064547436	0.6036362714052185	1.9071111018335507	0.11841649328202483	0.5080797377756273	0.22985876178071438	0.11592991219836127	0.4185726861288449	-0.012493789958851854	0.11551758423904988	0.377941369959294	0.1117098841536273	0.2972993405983679	0.4849032691300241	0.3497659660324558	0.36021437176214655	0.5264858732327181	0.639321750857061	0.3811885552046309	0.38284616186833254	0.8791900322212824	0.3436680879289641	0.31170299599453555	0.9793172029758115	0.3721250230036653	0.32086947898474805	1.0132745477380454	0.36855318077365123	0.38722631997763174	1.035610565633199	-0.06773170649125086	0.5121919271073088	0.34922858046109573	-0.07802447047181885	0.5170437524255102	0.6379087081226381	-0.08430276392246236	0.4342765103168416	0.8876049644232397	-0.030260334692000325	0.37729687686760394	0.9936129355780471	-0.054576805401935956	0.3387768711866245	0.9959573862131228	-0.10551689184161257	0.40738206396630333	1.0201281489743668
